<?xml version="1.0" standalone="no"?>
<!DOCTYPE svg PUBLIC "-//W3C//DTD SVG 20010904//EN"
 "http://www.w3.org/TR/2001/REC-SVG-20010904/DTD/svg10.dtd">
<svg version="1.0" xmlns="http://www.w3.org/2000/svg"
 width="1086.000000pt" height="1086.000000pt" viewBox="0 0 1086.000000 1086.000000"
 preserveAspectRatio="xMidYMid meet">
<metadata>
Created by potrace 1.14, written by Peter Selinger 2001-2017
</metadata>
<g transform="translate(0.000000,1086.000000) scale(0.100000,-0.100000)"
fill="#000000" stroke="none">
<path d="M5358 10824 c-34 -18 -77 -73 -83 -105 -3 -13 -9 -49 -15 -79 -6 -30
-13 -66 -16 -80 -3 -14 -7 -36 -8 -50 -11 -79 -19 -128 -41 -250 -13 -74 -27
-152 -31 -174 -3 -21 -8 -48 -10 -60 -2 -11 -7 -37 -10 -56 -2 -19 -7 -46 -9
-60 -3 -14 -8 -42 -11 -64 -3 -21 -8 -48 -10 -60 -2 -11 -7 -34 -9 -51 -7 -38
-23 -129 -30 -175 -4 -19 -13 -73 -21 -120 -8 -47 -17 -96 -19 -110 -2 -14
-11 -65 -19 -115 -9 -49 -18 -108 -22 -130 -3 -22 -8 -43 -10 -46 -2 -3 -6
-33 -10 -65 -3 -32 -8 -62 -10 -65 -2 -3 -6 -24 -9 -45 -2 -21 -7 -49 -9 -62
-3 -13 -14 -76 -25 -140 -12 -64 -23 -128 -26 -142 -3 -14 -7 -43 -9 -65 -3
-22 -10 -65 -16 -95 -6 -30 -13 -71 -16 -90 -6 -38 -11 -70 -18 -110 -3 -14
-19 -106 -36 -205 -17 -99 -33 -187 -35 -195 -3 -8 -7 -40 -11 -70 -3 -30 -10
-60 -15 -66 -5 -6 -6 -13 -3 -16 3 -4 0 -32 -6 -65 -6 -32 -13 -74 -16 -93 -3
-19 -6 -42 -8 -50 -6 -30 -16 -86 -21 -115 -3 -16 -12 -70 -20 -120 -9 -49
-18 -103 -21 -119 -7 -44 -29 -79 -66 -106 -58 -44 -111 -36 -353 54 -258 96
-366 136 -492 181 -104 38 -265 98 -323 120 -83 32 -346 127 -361 130 -9 2
-25 8 -35 14 -11 5 -39 16 -64 24 -25 9 -76 27 -115 42 -38 14 -74 27 -80 29
-5 1 -27 10 -49 19 -21 9 -41 17 -44 17 -5 0 -262 93 -352 127 -8 3 -19 7 -25
9 -9 2 -204 74 -719 265 -87 33 -165 59 -172 59 -8 0 -14 4 -14 8 0 4 -8 9
-17 10 -10 1 -90 29 -178 62 -88 34 -167 63 -175 65 -8 2 -28 9 -45 15 -106
42 -213 -10 -240 -117 -10 -39 -10 -55 2 -89 16 -46 30 -63 93 -114 24 -19 50
-42 59 -50 9 -8 50 -42 91 -75 41 -33 86 -69 100 -81 22 -20 212 -177 250
-207 19 -15 258 -212 285 -235 11 -10 91 -75 178 -147 86 -71 157 -133 157
-137 0 -4 5 -8 11 -8 5 0 104 -78 218 -173 115 -94 266 -219 336 -277 70 -58
136 -112 146 -120 29 -24 100 -84 119 -100 10 -8 35 -28 56 -45 40 -32 90 -72
164 -135 40 -34 161 -134 215 -178 11 -10 43 -35 70 -57 28 -21 52 -42 55 -45
3 -3 30 -25 60 -50 30 -25 57 -47 60 -50 3 -3 41 -35 85 -70 108 -87 132 -110
144 -143 28 -72 4 -147 -62 -200 -23 -17 -55 -44 -72 -59 -27 -25 -162 -137
-210 -177 -12 -9 -47 -38 -80 -66 -75 -63 -79 -66 -200 -167 -55 -45 -105 -87
-111 -93 -7 -5 -31 -26 -54 -44 -23 -19 -48 -40 -54 -45 -6 -6 -36 -31 -66
-56 -30 -25 -64 -53 -75 -62 -11 -9 -81 -67 -155 -128 -74 -62 -146 -122 -160
-134 -60 -50 -206 -172 -218 -181 -7 -5 -23 -19 -35 -30 -12 -11 -44 -37 -69
-58 -26 -21 -53 -43 -60 -50 -7 -7 -34 -29 -60 -50 -26 -21 -53 -43 -60 -50
-8 -7 -38 -32 -68 -57 -30 -25 -64 -53 -75 -62 -11 -9 -54 -44 -95 -79 -41
-34 -88 -73 -105 -88 -16 -14 -52 -44 -80 -66 -27 -22 -52 -42 -55 -45 -3 -3
-32 -27 -65 -55 -33 -27 -69 -58 -80 -67 -11 -9 -81 -67 -155 -128 -74 -62
-146 -122 -160 -134 -14 -11 -60 -50 -102 -85 -43 -34 -86 -79 -98 -97 -42
-72 -18 -176 52 -226 41 -29 143 -32 198 -7 40 19 118 49 140 55 16 3 483 179
575 215 17 7 32 13 35 14 11 4 48 17 95 35 28 10 160 60 295 110 135 50 252
93 260 97 8 3 20 7 25 9 6 1 39 13 75 27 36 14 115 43 175 66 61 23 117 44
125 48 8 3 20 7 25 9 6 1 60 21 120 44 61 23 144 55 185 70 166 61 436 162
455 170 31 14 398 151 415 155 8 2 33 11 55 21 22 10 42 18 45 18 8 2 103 37
125 47 11 5 71 27 133 49 89 33 122 40 157 36 62 -6 119 -50 131 -101 7 -29
12 -54 19 -95 4 -25 9 -52 10 -60 17 -93 58 -332 61 -355 2 -16 7 -43 10 -60
5 -30 7 -39 18 -105 3 -19 8 -45 10 -56 2 -12 7 -39 10 -60 4 -22 11 -66 17
-99 12 -66 15 -83 29 -165 14 -83 21 -119 31 -180 6 -30 12 -71 14 -90 3 -19
7 -46 10 -60 7 -34 13 -68 19 -110 3 -19 7 -46 10 -60 8 -36 27 -143 43 -239
4 -25 8 -48 8 -51 2 -10 16 -86 21 -120 4 -19 8 -48 9 -65 2 -16 4 -30 5 -30
2 0 7 -24 14 -70 4 -23 8 -50 10 -60 2 -11 7 -40 11 -65 8 -51 12 -74 20 -110
2 -14 7 -41 10 -60 3 -19 7 -46 10 -60 3 -14 7 -41 10 -60 8 -53 24 -142 31
-170 3 -14 7 -38 9 -55 4 -36 20 -135 30 -185 2 -13 7 -40 10 -60 3 -20 7 -47
10 -60 5 -26 23 -127 30 -169 2 -13 7 -45 11 -70 4 -25 9 -55 12 -66 2 -11 5
-32 6 -47 0 -16 3 -28 6 -28 3 0 6 -8 7 -17 1 -21 11 -87 18 -123 3 -14 7 -41
10 -62 6 -45 24 -88 46 -110 73 -73 177 -78 244 -11 44 44 51 66 90 313 10 66
56 331 65 375 5 28 12 66 14 85 3 19 7 46 10 60 5 27 22 127 30 175 9 55 46
270 50 291 2 12 16 90 30 175 14 85 28 165 31 179 3 13 7 42 11 65 3 22 10 60
15 85 5 25 12 63 15 85 2 22 13 87 24 145 10 58 21 123 25 144 3 21 7 48 10
60 2 12 7 37 10 56 2 19 7 45 9 56 2 12 7 39 11 60 3 22 8 53 11 69 30 179 46
268 54 310 6 28 12 64 14 80 2 17 8 57 14 90 6 33 14 78 17 100 3 22 7 47 10
55 2 8 6 37 10 64 3 27 8 52 9 55 2 3 7 26 10 51 3 25 8 56 11 70 3 14 7 37
10 52 2 15 8 51 14 80 6 29 13 69 15 88 2 19 7 46 10 60 4 14 8 41 10 60 3 19
5 35 6 35 1 0 4 11 6 24 12 68 68 121 136 128 36 4 72 -6 220 -61 97 -36 178
-66 181 -66 2 0 22 -8 43 -17 22 -9 44 -18 49 -19 10 -2 543 -201 805 -301 80
-30 150 -56 155 -57 6 -2 21 -8 35 -13 14 -6 160 -61 325 -122 165 -61 309
-116 320 -121 11 -5 144 -54 295 -110 151 -56 282 -104 290 -107 8 -3 20 -7
25 -9 6 -1 129 -48 275 -104 146 -56 270 -103 275 -104 6 -2 17 -6 25 -9 162
-63 270 -98 299 -99 119 -1 204 126 157 235 -17 40 -36 62 -111 122 -33 26
-62 51 -65 54 -3 4 -138 116 -300 251 -162 135 -297 247 -300 250 -3 3 -30 25
-60 50 -30 25 -66 55 -80 67 -14 11 -59 49 -100 83 -41 34 -84 69 -95 79 -11
9 -101 84 -200 166 -99 82 -182 152 -185 155 -3 3 -57 48 -120 100 -63 52
-117 97 -120 100 -3 3 -84 70 -180 150 -96 80 -177 147 -180 150 -3 3 -84 71
-180 150 -96 79 -177 147 -180 150 -3 3 -97 82 -210 175 -113 94 -218 181
-233 195 -57 50 -76 118 -49 183 14 38 43 64 301 276 25 20 49 41 55 46 6 6
31 26 56 45 25 19 47 37 50 40 8 8 72 62 120 100 24 19 48 40 54 45 6 6 34 28
61 50 28 21 52 42 55 45 4 5 147 122 194 160 10 8 23 20 30 25 6 6 74 62 151
125 77 63 142 117 145 120 3 3 27 24 55 45 27 22 55 45 61 50 6 6 29 24 50 42
380 312 645 531 671 554 18 16 35 29 38 29 3 0 16 10 29 23 13 12 32 29 42 37
40 31 129 105 134 110 3 3 55 45 115 94 61 49 115 94 120 100 6 6 30 27 55 46
61 47 61 47 91 73 14 12 47 40 74 62 140 115 161 145 151 229 -12 105 -109
172 -211 145 -22 -6 -125 -43 -230 -81 -104 -39 -194 -71 -200 -73 -5 -1 -22
-7 -36 -13 -15 -6 -64 -24 -110 -40 -46 -17 -95 -35 -109 -40 -14 -6 -77 -29
-140 -52 -152 -55 -221 -80 -245 -90 -65 -27 -252 -93 -262 -93 -7 0 -13 -4
-13 -9 0 -4 -6 -8 -14 -8 -8 0 -52 -14 -98 -31 -45 -17 -108 -40 -138 -51 -30
-12 -64 -24 -75 -28 -11 -5 -47 -18 -80 -30 -33 -12 -82 -30 -110 -40 -27 -10
-120 -44 -205 -75 -162 -59 -291 -107 -325 -120 -11 -4 -24 -9 -30 -11 -5 -1
-256 -93 -557 -203 -301 -111 -560 -201 -577 -201 -89 0 -161 75 -163 170 0 8
-6 44 -13 80 -7 36 -16 83 -19 105 -6 36 -14 84 -31 180 -2 17 -10 57 -16 90
-6 33 -13 74 -15 90 -2 17 -6 41 -9 55 -6 34 -16 90 -19 115 -2 11 -6 34 -9
50 -4 17 -9 46 -11 65 -3 19 -7 46 -10 60 -5 27 -45 259 -51 300 -2 14 -7 36
-10 50 -3 14 -7 41 -10 60 -3 19 -7 46 -10 60 -6 30 -18 95 -29 170 -7 43 -65
384 -73 425 -8 45 -18 106 -27 160 -2 11 -6 36 -10 55 -3 19 -8 49 -11 65 -3
17 -12 71 -20 120 -9 50 -18 104 -21 120 -2 17 -10 57 -16 90 -6 33 -12 69
-14 80 -8 46 -14 87 -18 113 -3 15 -8 45 -12 67 -4 22 -8 49 -10 60 -1 11 -3
22 -4 25 -1 3 -2 9 -1 13 1 5 -3 25 -8 45 -6 20 -12 55 -16 77 -3 23 -8 52
-10 65 -3 14 -8 42 -10 62 -3 21 -16 99 -30 174 -14 74 -23 140 -20 145 4 5 2
9 -2 9 -5 0 -9 8 -9 18 -1 16 -8 58 -18 109 -8 39 -34 78 -68 103 -41 30 -137
38 -180 14z m137 -38 c47 -20 74 -79 90 -196 3 -25 8 -52 10 -60 2 -8 7 -35
10 -60 3 -25 12 -81 20 -125 8 -44 17 -97 21 -119 3 -21 8 -48 10 -60 2 -11 9
-48 14 -81 5 -33 12 -71 15 -85 2 -13 7 -42 10 -65 3 -22 8 -47 10 -55 2 -8 6
-28 9 -45 12 -81 19 -122 22 -140 3 -11 7 -36 10 -55 3 -19 7 -42 9 -50 2 -8
7 -35 10 -60 3 -25 8 -52 10 -60 2 -8 7 -35 10 -60 3 -25 10 -61 15 -80 4 -19
8 -42 8 -50 0 -8 3 -26 6 -40 4 -14 9 -41 12 -60 9 -61 13 -84 19 -110 3 -14
7 -41 10 -60 2 -19 6 -46 10 -60 3 -14 7 -38 10 -55 9 -68 16 -111 20 -125 2
-8 7 -37 11 -65 3 -27 8 -53 10 -56 2 -4 6 -27 9 -50 3 -24 8 -57 12 -74 3
-16 7 -39 9 -50 3 -24 14 -89 20 -119 2 -11 17 -100 34 -196 16 -96 32 -184
34 -196 2 -12 7 -45 11 -75 4 -30 8 -56 10 -59 2 -3 7 -26 10 -50 11 -69 14
-83 19 -110 7 -34 15 -87 22 -135 3 -22 7 -46 10 -54 3 -8 7 -30 10 -50 3 -20
9 -61 14 -91 5 -30 12 -71 15 -90 3 -19 10 -60 16 -90 17 -90 18 -94 23 -130
8 -49 54 -111 104 -138 67 -38 113 -32 302 38 91 34 170 63 175 64 6 2 23 8
38 14 15 7 39 15 53 18 13 3 27 10 29 15 3 4 12 6 20 2 8 -3 15 -1 15 4 0 5 6
10 13 11 11 0 263 91 482 174 103 39 123 46 485 179 168 62 327 120 353 130
26 9 49 18 50 18 1 0 13 4 27 9 14 5 75 27 135 50 61 22 229 84 375 137 146
53 288 105 315 116 87 33 349 130 365 134 8 2 94 34 190 70 96 36 182 68 190
70 8 2 29 8 45 13 35 10 91 -2 119 -26 41 -36 54 -110 28 -159 -6 -11 -35 -40
-64 -64 -29 -23 -57 -48 -63 -53 -5 -6 -30 -27 -55 -46 -25 -19 -47 -37 -50
-40 -3 -3 -41 -35 -85 -70 -44 -36 -85 -69 -91 -75 -34 -30 -77 -66 -144 -120
-41 -33 -86 -70 -100 -82 -25 -22 -132 -110 -208 -171 -65 -53 -86 -70 -102
-85 -8 -7 -53 -44 -100 -82 -47 -38 -87 -72 -90 -75 -3 -3 -27 -23 -55 -45
-27 -21 -52 -42 -55 -45 -5 -5 -99 -82 -128 -105 -7 -5 -23 -19 -35 -30 -12
-11 -42 -36 -67 -55 -25 -19 -61 -49 -80 -67 -19 -18 -38 -33 -41 -33 -3 0
-17 -10 -31 -23 -14 -13 -85 -72 -159 -132 -74 -60 -136 -112 -139 -115 -3 -3
-21 -18 -40 -34 -19 -15 -53 -43 -75 -61 -22 -19 -101 -84 -175 -145 -74 -61
-153 -126 -175 -145 -22 -18 -107 -88 -190 -156 -82 -67 -152 -125 -155 -129
-3 -3 -25 -21 -50 -40 -126 -98 -153 -136 -154 -224 0 -47 5 -70 23 -99 18
-30 143 -140 356 -315 38 -32 140 -117 151 -127 6 -5 39 -32 73 -60 33 -27 61
-53 61 -57 0 -5 6 -8 13 -8 7 0 20 -8 28 -17 9 -10 25 -25 35 -33 38 -30 129
-105 134 -110 3 -3 32 -28 65 -55 33 -28 71 -60 85 -71 25 -22 428 -357 508
-423 24 -20 49 -41 55 -46 15 -13 257 -216 275 -230 7 -5 18 -15 25 -20 7 -6
53 -44 102 -85 50 -41 95 -79 101 -85 18 -16 54 -46 139 -115 44 -35 97 -80
117 -99 21 -18 48 -41 60 -49 13 -8 28 -20 33 -26 8 -9 346 -291 380 -318 6
-4 30 -26 55 -48 25 -22 48 -40 51 -40 13 0 39 -50 45 -84 12 -78 -65 -155
-143 -143 -31 5 -108 33 -288 102 -95 37 -206 78 -415 155 -107 40 -208 78
-225 85 -16 7 -88 33 -160 59 -71 26 -139 51 -150 56 -26 11 -177 67 -240 90
-27 10 -97 36 -155 58 -130 49 -452 170 -502 188 -93 34 -845 316 -863 324
-11 5 -60 23 -110 40 -49 18 -121 45 -160 60 -263 103 -331 118 -396 85 -91
-46 -109 -85 -143 -305 -3 -19 -8 -46 -11 -60 -2 -14 -20 -119 -40 -235 -38
-221 -41 -237 -50 -299 -4 -21 -9 -48 -11 -60 -5 -26 -21 -117 -29 -171 -11
-67 -13 -77 -29 -165 -8 -47 -17 -101 -20 -120 -3 -19 -8 -45 -10 -56 -2 -12
-7 -39 -10 -60 -4 -22 -11 -64 -16 -94 -5 -30 -12 -71 -15 -90 -3 -19 -14 -82
-25 -140 -10 -58 -21 -123 -25 -145 -4 -22 -9 -49 -11 -60 -2 -11 -19 -114
-39 -230 -19 -115 -37 -221 -40 -235 -3 -14 -7 -38 -9 -55 -2 -16 -7 -46 -11
-65 -4 -19 -8 -44 -10 -55 -1 -11 -7 -47 -13 -80 -6 -33 -13 -73 -15 -90 -3
-16 -8 -46 -11 -65 -3 -19 -8 -48 -11 -65 -3 -16 -12 -66 -19 -110 -8 -44 -17
-100 -21 -125 -3 -25 -10 -61 -15 -80 -5 -19 -12 -55 -15 -80 -3 -25 -8 -52
-10 -60 -3 -8 -7 -33 -10 -55 -6 -47 -8 -61 -36 -217 -19 -104 -25 -121 -52
-148 -37 -36 -85 -47 -130 -29 -64 25 -76 48 -101 190 -9 52 -18 105 -21 119
-2 13 -7 40 -10 60 -3 20 -7 45 -9 57 -3 11 -7 38 -10 59 -4 22 -11 64 -16 94
-5 30 -12 71 -15 90 -3 19 -8 49 -12 65 -3 17 -7 39 -8 50 -3 18 -18 103 -29
161 -2 12 -7 39 -10 60 -4 22 -14 80 -22 129 -9 50 -18 104 -21 120 -3 26 -30
178 -48 280 -3 17 -9 57 -15 90 -5 33 -12 71 -15 85 -3 14 -8 45 -11 70 -3 25
-9 63 -14 85 -5 22 -11 58 -14 80 -4 23 -8 52 -11 65 -3 14 -7 36 -9 50 -3 14
-8 41 -10 60 -3 19 -8 46 -11 60 -3 14 -7 39 -9 55 -3 17 -7 45 -10 63 -3 17
-8 47 -12 65 -3 17 -9 48 -13 67 -4 19 -7 45 -6 58 1 12 -1 22 -5 22 -4 0 -7
6 -7 13 -1 15 -11 94 -17 127 -3 14 -12 68 -21 120 -8 52 -22 129 -30 170 -8
41 -16 89 -19 105 -14 90 -18 114 -26 160 -5 28 -12 68 -15 90 -12 72 -13 80
-18 110 -4 17 -9 45 -12 63 -10 64 -16 98 -31 177 -9 44 -15 87 -15 95 -1 57
-57 136 -116 162 -73 32 -123 26 -273 -35 -14 -6 -29 -11 -35 -13 -5 -1 -143
-52 -305 -114 -162 -61 -299 -113 -305 -114 -5 -2 -17 -6 -25 -9 -25 -11
-1034 -389 -1045 -391 -5 -2 -23 -8 -40 -15 -16 -7 -86 -33 -155 -57 -69 -25
-138 -51 -153 -59 -16 -8 -35 -15 -43 -15 -8 0 -22 -4 -32 -9 -28 -14 -96 -41
-247 -96 -55 -20 -109 -40 -120 -45 -11 -5 -47 -18 -80 -30 -33 -12 -87 -32
-120 -45 -236 -91 -686 -255 -703 -255 -84 0 -145 78 -126 163 5 26 48 76 100
117 37 30 199 164 204 170 3 3 68 57 145 120 77 63 146 120 153 127 7 7 34 29
60 50 26 21 63 53 82 70 19 18 38 33 41 33 3 0 17 10 31 22 13 13 48 43 78 68
30 25 86 72 125 105 40 33 94 78 120 100 65 53 130 107 188 157 26 23 57 48
68 56 11 8 39 32 62 53 23 21 45 39 49 39 4 0 17 10 30 23 23 22 256 218 310
260 16 12 43 35 61 51 18 15 52 44 77 65 25 20 50 41 56 46 6 6 33 28 60 50
110 91 140 116 159 133 11 10 72 61 135 113 63 51 117 96 120 99 6 6 59 51
125 105 27 22 53 45 59 50 6 6 38 32 71 60 33 27 63 54 67 60 4 5 8 7 8 3 0
-16 84 70 101 105 45 86 20 191 -59 255 -23 19 -51 43 -64 54 -46 39 -64 54
-113 93 -27 22 -55 45 -61 51 -6 5 -31 26 -54 45 -58 47 -282 231 -296 244 -7
5 -29 24 -50 40 -21 17 -45 37 -53 45 -9 8 -37 31 -61 50 -25 19 -47 37 -50
40 -3 4 -43 37 -90 76 -47 38 -90 73 -96 79 -6 5 -26 21 -44 35 -18 14 -38 30
-44 36 -6 5 -67 56 -136 113 -69 56 -137 112 -151 124 -15 12 -46 38 -70 57
-23 19 -57 47 -73 62 -17 15 -84 70 -149 122 -64 52 -124 101 -131 108 -8 7
-22 20 -33 28 -117 94 -153 125 -153 132 0 4 -5 8 -11 8 -6 0 -38 24 -72 53
-34 28 -67 57 -75 62 -7 6 -19 16 -28 23 -8 8 -54 46 -102 86 -48 39 -96 79
-107 88 -11 9 -49 41 -85 70 -36 29 -70 57 -76 63 -7 5 -86 71 -177 145 -91
74 -168 144 -172 155 -26 73 0 152 57 176 30 12 91 15 107 4 6 -3 19 -8 28
-10 10 -2 79 -27 153 -56 74 -28 142 -52 150 -54 8 -2 33 -11 55 -21 22 -10
46 -19 54 -20 8 -2 48 -16 90 -32 42 -17 195 -74 341 -127 146 -53 312 -114
370 -136 58 -22 112 -42 120 -44 14 -3 266 -96 320 -118 14 -6 30 -11 35 -12
8 -2 114 -41 370 -135 43 -15 173 -64 240 -89 11 -5 43 -16 70 -25 63 -22 345
-125 365 -133 8 -3 17 -7 20 -7 3 -1 37 -14 75 -28 344 -132 655 -240 690
-240 75 0 150 45 179 106 15 32 33 114 51 233 3 21 8 50 10 63 14 69 17 87 20
110 2 14 6 41 9 60 4 19 9 47 11 63 3 15 8 42 11 60 3 17 7 43 9 57 2 14 6 41
9 60 15 81 36 197 41 225 2 17 7 41 9 55 3 14 8 41 10 60 3 19 8 46 11 60 12
61 15 78 20 120 3 25 8 52 10 60 2 8 6 33 10 55 3 22 8 47 10 55 3 8 7 32 9
52 3 21 10 63 15 95 6 32 13 72 15 88 15 92 37 212 41 225 2 8 7 38 11 65 3
28 8 59 10 70 4 25 10 57 18 115 4 25 9 52 11 60 2 8 6 29 9 45 6 37 55 319
62 360 6 32 9 48 18 110 3 22 8 51 11 65 2 13 7 40 10 60 3 20 7 47 10 60 6
31 23 125 29 165 9 56 36 211 41 235 3 13 7 40 10 60 3 20 8 47 10 60 3 14 8
41 11 60 28 187 52 300 68 325 19 29 67 54 104 55 12 0 38 -6 57 -14z"/>
</g>
</svg>
